<?xml version="1.0" encoding="utf-8"?>
<!-- Generator: Adobe Illustrator 17.0.0, SVG Export Plug-In . SVG Version: 6.00 Build 0)  -->
<!DOCTYPE svg PUBLIC "-//W3C//DTD SVG 1.1//EN" "http://www.w3.org/Graphics/SVG/1.1/DTD/svg11.dtd">
<svg version="1.1" id="Layer_1" xmlns="http://www.w3.org/2000/svg" xmlns:xlink="http://www.w3.org/1999/xlink" x="0px" y="0px"
	 width="112.299px" height="101.604px" viewBox="0 0 112.299 101.604" enable-background="new 0 0 112.299 101.604"
	 xml:space="preserve">
<path d="M8.934,57.213l18.284,25.104c1.94,2.647,6.225,4.499,9.505,4.122l29.812-3.464c1.644-0.191,5.214-0.785,4.121-2.304
	C68.745,78.014,50.56,52.231,47.84,48.661l0,0l0,0c2.747-0.336,35.755-4.186,38.712-4.548c3.269-0.4-1.079-5.938-0.473-5.112
	l-17.612-24c-1.94-2.653-6.226-4.499-9.504-4.121l-29.822,3.466c-3.289,0.383-7.08,3.166-8.419,6.193L8.51,48.005
	C7.172,51.037,6.996,54.567,8.934,57.213 M100.288,44.792c-2.542,0.799-1.464,3.052-0.972,5.017
	c2.867,11.448-1.056,21.689-7.916,29.027c-2.117,2.264-4.278,3.991-7.354,5.748c-1.954,1.117-4.323,1.93-3.242,4.199
	c1.034,2.169,3.563,0.877,5.696-0.367c7.571-4.418,12.38-10.609,15.123-16.744c2.549-5.706,3.755-11.613,2.925-18.504
	c-0.251-2.091-0.516-5.525-1.735-7.386C102.238,44.903,101.25,44.49,100.288,44.792z M90.085,49.68
	c-0.179,0.669,0.245,1.485,0.442,2.275c2.267,9.092-1.547,18.407-8.712,23.536c-1.808,1.295-5.447,2.304-4.38,4.834
	c1.202,2.853,4.758,0.228,6.82-1.269c4.417-3.208,7.106-6.906,8.867-10.799c3.808-8.417,1.209-18.873,1.191-18.902
	C93.306,47.676,90.562,47.898,90.085,49.68z M83.243,51.593c-2.068,0.578-1.681,2.096-1.452,3.574
	c0.767,4.935-1.201,9.718-4.961,12.69c-0.627,0.495-1.573,0.857-2.262,1.538c-0.54,0.533-0.735,1.817-0.564,2.313
	c1.275,3.704,5.98-0.405,7.594-2.122c2.777-2.957,4.27-6.434,4.763-10.16c0.253-1.917,0.289-4.294-0.373-6.296
	c-0.176-0.531-0.308-0.599-0.361-0.672C85.19,51.844,84.169,51.335,83.243,51.593z"/>
</svg>
